<?xml version="1.0" encoding="UTF-8"?>
<svg xmlns="http://www.w3.org/2000/svg" width="1254" height="1254" viewBox="0 0 1254 1254" role="img" aria-label="Vectorized symbolic icon">
  <style>
    :root {
      color: #101417;
      --bg: #ffffff;
    }
    @media (prefers-color-scheme: dark) {
      :root {
        color: #ffffff;
        --bg: #000000;
      }
    }
  </style>
  <rect width="1254" height="1254" fill="var(--bg)"/>
  <path d="M 288.0 346.0 L 267.0 369.0 L 245.0 401.0 L 226.0 436.0 L 210.0 474.0 L 198.0 513.0 L 191.0 548.0 L 187.0 580.0 L 186.0 630.0 L 189.0 667.0 L 195.0 702.0 L 204.0 736.0 L 219.0 777.0 L 238.0 815.0 L 256.0 843.0 L 286.0 878.0 L 292.0 878.0 L 296.0 874.0 L 295.0 869.0 L 280.0 853.0 L 255.0 819.0 L 234.0 780.0 L 222.0 751.0 L 207.0 700.0 L 201.0 667.0 L 198.0 635.0 L 198.0 592.0 L 201.0 562.0 L 215.0 498.0 L 231.0 455.0 L 248.0 421.0 L 266.0 392.0 L 296.0 355.0 L 295.0 348.0 Z
    M 964.0 347.0 L 960.0 351.0 L 961.0 358.0 L 979.0 378.0 L 1000.0 408.0 L 1023.0 452.0 L 1033.0 477.0 L 1048.0 529.0 L 1054.0 563.0 L 1057.0 596.0 L 1057.0 632.0 L 1054.0 665.0 L 1040.0 729.0 L 1025.0 770.0 L 1005.0 810.0 L 989.0 835.0 L 960.0 870.0 L 961.0 877.0 L 968.0 879.0 L 990.0 855.0 L 1010.0 826.0 L 1031.0 787.0 L 1045.0 753.0 L 1059.0 705.0 L 1065.0 672.0 L 1068.0 644.0 L 1069.0 604.0 L 1066.0 563.0 L 1059.0 522.0 L 1052.0 495.0 L 1037.0 453.0 L 1019.0 416.0 L 1004.0 391.0 L 973.0 351.0 L 968.0 347.0 Z
    M 389.0 384.0 L 383.0 388.0 L 383.0 408.0 L 323.0 465.0 L 322.0 474.0 L 336.0 489.0 L 348.0 494.0 L 358.0 493.0 L 367.0 488.0 L 389.0 487.0 L 390.0 480.0 L 387.0 477.0 L 365.0 477.0 L 354.0 483.0 L 346.0 482.0 L 335.0 471.0 L 335.0 469.0 L 394.0 413.0 L 394.0 404.0 L 396.0 403.0 L 453.0 469.0 L 452.0 484.0 L 431.0 534.0 L 432.0 539.0 L 438.0 541.0 L 442.0 538.0 L 463.0 487.0 L 464.0 465.0 L 458.0 456.0 L 395.0 385.0 Z
    M 854.0 692.0 L 838.0 697.0 L 829.0 705.0 L 823.0 718.0 L 823.0 731.0 L 827.0 741.0 L 837.0 752.0 L 846.0 756.0 L 858.0 757.0 L 871.0 753.0 L 881.0 744.0 L 886.0 733.0 L 887.0 722.0 L 882.0 707.0 L 875.0 699.0 L 866.0 694.0 Z
    M 788.0 588.0 L 788.0 592.0 L 791.0 595.0 L 919.0 595.0 L 922.0 592.0 L 922.0 588.0 L 918.0 584.0 L 791.0 584.0 Z
    M 566.0 583.0 L 566.0 588.0 L 570.0 591.0 L 691.0 591.0 L 695.0 588.0 L 695.0 583.0 L 692.0 580.0 L 569.0 580.0 Z
    M 849.0 704.0 L 861.0 704.0 L 871.0 711.0 L 875.0 718.0 L 876.0 727.0 L 874.0 734.0 L 867.0 742.0 L 858.0 746.0 L 852.0 746.0 L 844.0 743.0 L 837.0 736.0 L 834.0 729.0 L 834.0 720.0 L 837.0 713.0 Z
    M 668.0 700.0 L 666.0 702.0 L 666.0 708.0 L 668.0 710.0 L 677.0 710.0 L 684.0 716.0 L 685.0 742.0 L 689.0 747.0 L 684.0 758.0 L 683.0 781.0 L 679.0 784.0 L 668.0 785.0 L 666.0 787.0 L 667.0 795.0 L 676.0 796.0 L 686.0 793.0 L 692.0 787.0 L 695.0 780.0 L 695.0 759.0 L 696.0 756.0 L 703.0 751.0 L 703.0 744.0 L 699.0 742.0 L 695.0 736.0 L 695.0 715.0 L 692.0 708.0 L 683.0 701.0 Z
    M 334.0 828.0 L 335.0 832.0 L 338.0 834.0 L 455.0 834.0 L 459.0 829.0 L 456.0 823.0 L 338.0 823.0 Z
    M 341.0 580.0 L 341.0 585.0 L 344.0 588.0 L 462.0 588.0 L 464.0 586.0 L 464.0 580.0 L 461.0 577.0 L 345.0 577.0 Z
    M 579.0 700.0 L 572.0 703.0 L 565.0 711.0 L 563.0 739.0 L 556.0 744.0 L 555.0 750.0 L 563.0 757.0 L 564.0 760.0 L 564.0 782.0 L 567.0 788.0 L 577.0 795.0 L 591.0 795.0 L 592.0 786.0 L 582.0 785.0 L 575.0 779.0 L 574.0 754.0 L 570.0 748.0 L 575.0 736.0 L 574.0 724.0 L 576.0 714.0 L 582.0 710.0 L 592.0 709.0 L 591.0 700.0 Z
    M 797.0 561.0 L 797.0 567.0 L 800.0 570.0 L 910.0 570.0 L 913.0 568.0 L 913.0 561.0 L 911.0 559.0 L 799.0 559.0 Z
    M 571.0 834.0 L 572.0 838.0 L 575.0 840.0 L 684.0 840.0 L 687.0 837.0 L 687.0 831.0 L 684.0 829.0 L 575.0 829.0 Z
    M 799.0 831.0 L 802.0 834.0 L 907.0 834.0 L 910.0 832.0 L 911.0 828.0 L 908.0 823.0 L 802.0 823.0 L 799.0 826.0 Z
    M 393.0 684.0 L 369.0 724.0 L 366.0 734.0 L 370.0 737.0 L 374.0 737.0 L 377.0 734.0 L 396.0 701.0 L 398.0 701.0 L 420.0 737.0 L 424.0 737.0 L 428.0 733.0 L 428.0 730.0 L 401.0 684.0 Z
    M 608.0 425.0 L 604.0 426.0 L 589.0 444.0 L 582.0 465.0 L 582.0 478.0 L 585.0 491.0 L 591.0 503.0 L 600.0 513.0 L 606.0 512.0 L 608.0 505.0 L 602.0 499.0 L 596.0 488.0 L 593.0 469.0 L 595.0 459.0 L 600.0 448.0 L 613.0 433.0 L 613.0 429.0 Z
    M 346.0 802.0 L 349.0 808.0 L 445.0 808.0 L 447.0 806.0 L 447.0 800.0 L 443.0 797.0 L 356.0 797.0 L 349.0 798.0 Z
    M 654.0 425.0 L 650.0 427.0 L 649.0 434.0 L 663.0 451.0 L 668.0 469.0 L 665.0 488.0 L 653.0 506.0 L 657.0 513.0 L 661.0 513.0 L 668.0 506.0 L 676.0 491.0 L 679.0 479.0 L 679.0 464.0 L 676.0 452.0 L 670.0 440.0 L 657.0 426.0 Z
    M 580.0 813.0 L 583.0 820.0 L 675.0 820.0 L 678.0 817.0 L 678.0 811.0 L 675.0 809.0 L 584.0 809.0 Z
    M 578.0 557.0 L 578.0 563.0 L 580.0 565.0 L 682.0 565.0 L 684.0 562.0 L 684.0 558.0 L 681.0 555.0 L 580.0 555.0 Z
    M 871.0 468.0 L 871.0 478.0 L 880.0 479.0 L 880.0 542.0 L 883.0 545.0 L 899.0 545.0 L 902.0 542.0 L 901.0 534.0 L 893.0 534.0 L 891.0 532.0 L 891.0 469.0 Z
    M 838.0 468.0 L 819.0 469.0 L 819.0 532.0 L 817.0 534.0 L 809.0 535.0 L 809.0 544.0 L 818.0 545.0 L 828.0 544.0 L 830.0 542.0 L 830.0 479.0 L 839.0 478.0 Z
    M 351.0 556.0 L 351.0 560.0 L 354.0 563.0 L 451.0 563.0 L 454.0 559.0 L 453.0 554.0 L 451.0 553.0 L 354.0 553.0 Z
    M 625.0 649.0 L 624.0 665.0 L 607.0 667.0 L 607.0 676.0 L 623.0 677.0 L 624.0 693.0 L 634.0 694.0 L 635.0 678.0 L 650.0 677.0 L 652.0 675.0 L 652.0 669.0 L 650.0 666.0 L 636.0 666.0 L 635.0 650.0 Z
    M 597.0 530.0 L 597.0 536.0 L 599.0 538.0 L 662.0 538.0 L 665.0 535.0 L 665.0 531.0 L 661.0 527.0 L 601.0 527.0 Z
    M 802.0 416.0 L 801.0 451.0 L 804.0 453.0 L 821.0 453.0 L 823.0 451.0 L 823.0 442.0 L 812.0 440.0 L 812.0 428.0 L 822.0 427.0 L 823.0 417.0 Z
    M 887.0 416.0 L 887.0 427.0 L 898.0 428.0 L 898.0 440.0 L 887.0 442.0 L 887.0 452.0 L 908.0 452.0 L 908.0 416.0 Z
    M 461.0 727.0 L 455.0 728.0 L 428.0 770.0 L 427.0 775.0 L 430.0 778.0 L 435.0 779.0 L 438.0 776.0 L 464.0 735.0 L 465.0 731.0 Z
    M 330.0 729.0 L 329.0 733.0 L 356.0 776.0 L 359.0 779.0 L 365.0 777.0 L 367.0 774.0 L 366.0 770.0 L 339.0 728.0 L 333.0 727.0 Z
    M 827.0 775.0 L 827.0 780.0 L 830.0 783.0 L 881.0 783.0 L 884.0 779.0 L 883.0 774.0 L 880.0 772.0 L 830.0 772.0 Z
    M 628.0 377.0 L 621.0 384.0 L 621.0 392.0 L 626.0 398.0 L 635.0 399.0 L 642.0 393.0 L 642.0 383.0 L 635.0 377.0 Z
    M 642.0 453.0 L 637.0 453.0 L 617.0 473.0 L 616.0 478.0 L 619.0 481.0 L 624.0 482.0 L 645.0 461.0 L 645.0 456.0 Z
    M 866.0 416.0 L 844.0 417.0 L 844.0 440.0 L 854.0 440.0 L 855.0 428.0 L 866.0 427.0 Z
    M 395.0 650.0 L 390.0 654.0 L 389.0 661.0 L 394.0 666.0 L 400.0 666.0 L 404.0 663.0 L 405.0 656.0 L 401.0 651.0 Z
    M 460.0 692.0 L 454.0 696.0 L 453.0 702.0 L 456.0 707.0 L 465.0 708.0 L 469.0 704.0 L 469.0 697.0 L 467.0 694.0 Z
    M 327.0 694.0 L 324.0 700.0 L 326.0 706.0 L 329.0 708.0 L 338.0 707.0 L 341.0 702.0 L 339.0 695.0 L 336.0 693.0 Z
    M 391.0 446.0 L 390.0 458.0 L 400.0 459.0 L 401.0 447.0 Z" fill="currentColor" fill-rule="evenodd"/>
</svg>
